<svg width="433" height="359" viewBox="0 0 433 359" fill="none" xmlns="http://www.w3.org/2000/svg">
<path fill-rule="evenodd" clip-rule="evenodd" d="M44.0053 41.7371C48.0426 17.6482 68.8927 0.00170898 93.3176 0.00170898H383C410.614 0.00170898 433 22.3875 433 50.0017V308.002C433 335.616 410.614 358.002 383 358.002H50.0773C19.162 358.002 -4.34496 330.227 0.765104 299.737L44.0053 41.7371ZM357.921 286.95C351.651 288.039 347.104 290.986 345.451 295.357C343.797 299.729 345.256 304.947 349.235 309.913C353.202 314.864 359.591 319.441 367.475 322.423C375.359 325.405 383.177 326.202 389.427 325.116C395.697 324.026 400.244 321.079 401.897 316.708C403.551 312.336 402.092 307.118 398.113 302.152C394.146 297.201 387.758 292.624 379.874 289.642C371.99 286.66 364.171 285.863 357.921 286.95ZM357.664 285.472C364.222 284.332 372.313 285.179 380.404 288.239C388.495 291.299 395.122 296.019 399.284 301.214C403.434 306.393 405.217 312.17 403.3 317.238C401.383 322.307 396.223 325.457 389.684 326.593C383.126 327.733 375.035 326.886 366.944 323.826C358.853 320.766 352.227 316.046 348.064 310.851C343.915 305.672 342.131 299.895 344.048 294.827C345.965 289.758 351.125 286.608 357.664 285.472ZM331.627 50.1877C328.712 46.6084 323.823 42.8605 317.372 39.3104C310.91 35.7544 302.837 32.3738 293.51 29.5483C274.857 23.8972 251.149 20.4546 225.207 22.2918C173.3 25.968 112.47 50.7843 65.3342 121.274L65.3176 121.299L65.3029 121.326C44.5617 158.46 37.7771 193.222 43.8931 217.253C46.9561 229.288 53.2666 238.663 62.7098 244.238C72.1478 249.81 84.6128 251.525 99.8739 248.447C136.454 241.071 152.196 216.004 168.166 190.574C168.871 189.451 169.577 188.328 170.284 187.205C187.036 160.634 205.098 134.376 248.376 127.135C292.035 119.83 318.604 107.812 331.404 93.9874C337.823 87.054 340.796 79.6443 340.678 72.1565C340.56 64.6811 337.361 57.2281 331.627 50.1877ZM225.313 23.7881C173.841 27.4334 113.456 52.0246 66.5978 122.083C45.96 159.043 39.3661 193.384 45.3468 216.883C48.3328 228.616 54.4417 237.615 63.4723 242.946C72.5081 248.28 84.5715 250.003 99.5774 246.977C135.514 239.73 150.937 215.18 166.956 189.68C167.641 188.59 168.327 187.498 169.015 186.405C185.8 159.782 204.168 133.011 248.129 125.655C291.709 118.363 317.855 106.413 330.303 92.9683C336.507 86.2672 339.289 79.2177 339.178 72.1803C339.066 65.1305 336.049 57.9924 330.464 51.1349C327.719 47.7653 323.016 44.1284 316.649 40.6245C310.292 37.1266 302.318 33.784 293.075 30.9838C274.589 25.3834 251.064 21.9643 225.313 23.7881Z" fill="#2D9CDB" fill-opacity="0.1"/>
</svg>
