<svg width="442" height="358" viewBox="0 0 442 358" fill="none" xmlns="http://www.w3.org/2000/svg">
<path fill-rule="evenodd" clip-rule="evenodd" d="M94.16 0C69.7998 0 48.9849 17.5557 44.8763 41.567L0.72928 299.567C-4.49661 330.108 19.0284 358 50.013 358H392C419.614 358 442 335.614 442 308V50C442 22.3858 419.614 0 392 0H94.16ZM412.076 329.518C413.242 326.517 413.805 322.29 413.699 317.22C413.592 312.137 412.812 306.159 411.255 299.629C408.141 286.569 401.909 271.261 391.682 256.439C371.215 226.776 334.758 199.078 275.354 195.244L275.323 195.242L275.293 195.243C245.444 195.658 221.888 203.566 209.38 215.513C203.111 221.5 199.596 228.527 199.521 236.13C199.446 243.728 202.806 251.782 210.052 259.831C227.422 279.129 248.255 279.887 269.284 280.652C270.218 280.686 271.153 280.72 272.088 280.755C294.086 281.594 316.27 283.319 335.771 306.491C355.52 329.957 372.174 341.683 385.134 344.566C391.642 346.013 397.247 345.235 401.812 342.559C406.366 339.888 409.798 335.38 412.076 329.518ZM390.426 257.27C370.206 227.965 334.17 200.537 275.284 196.727C245.64 197.145 222.549 205.008 210.438 216.576C204.395 222.348 201.107 229.016 201.036 236.145C200.966 243.28 204.117 250.994 211.188 258.85C228.12 277.66 248.341 278.4 269.454 279.172L269.508 279.174C270.386 279.206 271.266 279.238 272.147 279.272C294.207 280.113 316.995 281.846 336.941 305.547C356.639 328.953 373.02 340.349 385.469 343.118C391.666 344.497 396.859 343.733 401.033 341.285C405.218 338.831 408.467 334.633 410.66 328.99C411.729 326.239 412.288 322.226 412.183 317.25C412.079 312.286 411.316 306.412 409.779 299.966C406.705 287.075 400.545 271.935 390.426 257.27Z" fill="#9C69E2" fill-opacity="0.1"/>
</svg>
