<svg width="443" height="358" viewBox="0 0 443 358" fill="none" xmlns="http://www.w3.org/2000/svg">
<path fill-rule="evenodd" clip-rule="evenodd" d="M44.9555 41.5671C49.0642 17.5558 69.879 0.00012207 94.2392 0.00012207H392.079C419.693 0.00012207 442.079 22.3859 442.079 50.0001V308C442.079 335.614 419.693 358 392.079 358H50.0922C19.1077 358 -4.41738 330.108 0.808504 299.567L44.9555 41.5671ZM223.09 40.9425C222.992 36.2877 223.508 32.4018 224.582 29.6388C226.675 24.2535 229.831 20.1049 234.023 17.6466C238.227 15.1821 243.384 14.4679 249.367 15.7986C260.752 18.331 275.225 28.286 292.308 47.9689C291.775 48.1172 291.262 48.2924 290.774 48.4946C273.924 29.1787 259.849 19.6523 249.031 17.2461C243.361 15.9847 238.615 16.6846 234.802 18.9202C230.978 21.1621 228.006 24.9998 225.998 30.1668C225.022 32.6799 224.509 36.3522 224.605 40.912C224.7 45.4598 225.4 50.8435 226.809 56.7523C229.627 68.5701 235.274 82.4495 244.55 95.8942C263.087 122.759 296.122 147.905 350.112 151.399C377.293 151.015 398.453 143.805 409.546 133.211C415.079 127.926 418.085 121.824 418.15 115.305C418.214 108.78 415.333 101.718 408.854 94.5203C393.342 77.2872 374.82 76.6094 355.451 75.9007C354.63 75.8706 353.809 75.8406 352.985 75.8092C340.724 75.3416 328.209 74.5738 316.175 69.2004C316.695 68.9051 317.175 68.5722 317.608 68.2014C329.112 73.1309 341.104 73.8707 353.044 74.326C353.903 74.3587 354.762 74.3899 355.621 74.4212C374.905 75.1225 394.04 75.8184 409.991 93.5387C416.643 100.93 419.734 108.332 419.665 115.319C419.596 122.312 416.363 128.773 410.604 134.273C399.115 145.247 377.489 152.502 350.103 152.883L350.073 152.884L350.043 152.882C295.535 149.364 262.078 123.948 243.295 96.7253C233.91 83.124 228.191 69.076 225.333 57.0899C223.904 51.0968 223.188 45.6094 223.09 40.9425ZM316.063 67.5124C316.577 67.7507 317.092 67.9802 317.608 68.2014C318.515 67.4246 319.216 66.4817 319.645 65.3708C320.774 62.4464 319.703 59.1723 317.359 56.3064C315.001 53.4238 311.264 50.8222 306.719 49.1385C302.174 47.4549 297.615 46.9827 293.899 47.6153C293.353 47.7083 292.821 47.8262 292.308 47.9689C292.669 48.3856 293.032 48.8067 293.396 49.2321C292.834 49.3569 292.304 49.5097 291.809 49.689C291.463 49.2868 291.118 48.8886 290.774 48.4946C288.557 49.4126 286.85 50.8872 286.061 52.9292C284.932 55.8537 286.002 59.1277 288.347 61.9936C290.705 64.8762 294.442 67.4779 298.987 69.1615C303.531 70.8451 308.091 71.3174 311.807 70.6848C313.428 70.4088 314.918 69.9149 316.175 69.2004C315.598 68.9427 315.022 68.6745 314.447 68.3951C315.044 68.1416 315.585 67.8463 316.063 67.5124ZM314.447 68.3951C307.227 64.8859 300.194 59.6304 293.509 51.6872C292.939 51.0102 292.372 50.3442 291.809 49.689C289.63 50.4771 288.114 51.7767 287.468 53.4503C286.611 55.6686 287.344 58.3847 289.521 61.0462C291.685 63.691 295.186 66.154 299.527 67.7622C303.868 69.3703 308.157 69.7937 311.566 69.2132C312.633 69.0317 313.598 68.7558 314.447 68.3951ZM316.063 67.5124C308.673 64.0864 301.497 58.8456 294.678 50.743C294.249 50.2334 293.822 49.7298 293.396 49.2321C293.638 49.1784 293.886 49.1299 294.139 49.0868C297.548 48.5064 301.838 48.9297 306.179 50.5378C310.52 52.146 314.021 54.609 316.185 57.2538C318.362 59.9153 319.095 62.6314 318.238 64.8497C317.835 65.8941 317.093 66.7927 316.063 67.5124Z" fill="#68C9BA" fill-opacity="0.1"/>
</svg>
